<?xml version="1.0" encoding="UTF-8"?>
<svg id="Layer_1" data-name="Layer 1" xmlns="http://www.w3.org/2000/svg" viewBox="0 0 50 50">
  <defs>
    <style>
      .cls-1 {
        fill: #1883bf;
      }
    </style>
  </defs>
  <path class="cls-1" d="m19.78,16.2c-4.23,0-7.76,2.98-8.61,6.95-.13.6-.19,1.22-.19,1.85h29.74c0,.63-.04,1.24-.11,1.85-.92,7.81-7.56,13.87-15.61,13.87s-14.69-6.06-15.61-13.87c-.07-.61-.11-1.22-.11-1.85s.04-1.24.11-1.85c.92-7.81,7.56-13.87,15.61-13.87s14.69,6.06,15.61,13.87h-12.22c-.85-3.97-4.38-6.95-8.61-6.95Zm0,17.6c4.23,0,7.76-2.98,8.61-6.95H11.17c.85,3.97,4.38,6.95,8.61,6.95Z"/>
</svg>