<?xml version="1.0" encoding="UTF-8"?>
<svg id="Layer_1" data-name="Layer 1" xmlns="http://www.w3.org/2000/svg" viewBox="0 0 6.13 11">
  <defs>
    <style>
      .cls-1 {
        fill: #fabb17;
      }
    </style>
  </defs>
  <path class="cls-1" d="m1.54,9.54h2.71c.66,0,.94-.35.94-1.09v-2.07h-.07c-.2.42-.83,1.27-2.13,1.27-1.76,0-2.97-1.48-2.97-3.59S1.27.5,3.05.5c1.36,0,1.94,1,2.1,1.25h.07V.67h.91v7.89c0,1.38-.76,1.94-1.9,1.94H1.54v-.96Zm3.68-5.48c0-1.43-.82-2.62-2.11-2.62C1.91,1.44.97,2.47.97,4.06s.89,2.65,2.11,2.65,2.13-.97,2.13-2.65Z"/>
</svg>