<?xml version="1.0" encoding="UTF-8"?>
<svg id="Layer_1" data-name="Layer 1" xmlns="http://www.w3.org/2000/svg" viewBox="0 0 4.85 11">
  <defs>
    <style>
      .cls-1 {
        fill: #fabb17;
      }
    </style>
  </defs>
  <path class="cls-1" d="m0,5.6l.86-.24c.07.92.66,1.39,1.61,1.39s1.45-.5,1.45-1.19C3.92,3.65.19,5.1.19,2.4.19,1.25,1.14.5,2.45.5c1.08,0,2.12.68,2.27,1.91l-.83.26c-.08-.8-.68-1.28-1.5-1.28s-1.28.42-1.28,1.01c0,1.73,3.74.29,3.74,3.11,0,1.28-.97,2.15-2.42,2.15S.14,6.82,0,5.6Z"/>
</svg>