<?xml version="1.0" encoding="UTF-8"?>
<svg id="Layer_1" data-name="Layer 1" xmlns="http://www.w3.org/2000/svg" viewBox="0 0 50 50">
  <defs>
    <style>
      .cls-1 {
        fill: #1883bf;
      }
    </style>
  </defs>
  <path class="cls-1" d="m17.62,12.55c-5.98,0-10.97,4.21-12.18,9.83-.18.84-.28,1.72-.28,2.62h42.08c0,.89-.05,1.76-.15,2.62-1.3,11.05-10.69,19.62-22.09,19.62S4.21,38.67,2.91,27.62c-.1-.86-.15-1.73-.15-2.62s.05-1.76.15-2.62C4.21,11.33,13.6,2.76,25,2.76s20.79,8.57,22.09,19.62h-17.29c-1.2-5.62-6.2-9.83-12.18-9.83Zm0,24.91c5.98,0,10.97-4.21,12.18-9.83H5.44c1.2,5.62,6.2,9.83,12.18,9.83Z"/>
</svg>