<?xml version="1.0" encoding="UTF-8"?>
<svg id="Layer_2" data-name="Layer 2" xmlns="http://www.w3.org/2000/svg" viewBox="0 0 50 50">
  <defs>
    <style>
      .cls-1 {
        fill: #fabb17;
      }
    </style>
  </defs>
  <path class="cls-1" d="m24.33,44.55c-3.58,0-6.71-.76-9.38-2.27-2.67-1.51-4.73-3.68-6.18-6.49-1.45-2.82-2.18-6.17-2.18-10.05s.74-7.59,2.21-10.62c1.47-3.03,3.56-5.4,6.27-7.1,2.71-1.71,5.86-2.56,9.44-2.56,3.84,0,7.17.82,9.98,2.46s5,3.94,6.56,6.88c1.56,2.94,2.34,6.38,2.34,10.3s-.79,7.47-2.37,10.37c-1.58,2.9-3.79,5.14-6.62,6.72-2.84,1.58-6.2,2.37-10.08,2.37Zm.9-10.43c2.26,0,4.05-.9,5.38-2.69,1.32-1.79,1.98-4.16,1.98-7.1s-.66-5.37-1.98-7.14c-1.32-1.77-3.12-2.66-5.38-2.66s-4.19.89-5.54,2.66c-1.34,1.77-2.02,4.15-2.02,7.14s.67,5.31,2.02,7.1,3.19,2.69,5.54,2.69Z"/>
</svg>