<?xml version="1.0" encoding="UTF-8"?>
<svg id="Layer_2" data-name="Layer 2" xmlns="http://www.w3.org/2000/svg" viewBox="0 0 280 90">
  <defs>
    <style>
      .cls-1 {
        fill: #1883bf;
      }

      .cls-2 {
        fill: #ea5926;
      }

      .cls-3 {
        fill: #fabb17;
      }
    </style>
  </defs>
  <path class="cls-1" d="m42.84,75.16c-6.35,0-11.63-1.13-15.84-3.4-4.21-2.27-7.36-5.45-9.44-9.56-2.08-4.11-3.12-8.91-3.12-14.4,0-6.08,1.17-11.4,3.52-15.96,2.35-4.56,5.72-8.09,10.12-10.6,4.4-2.51,9.72-3.76,15.96-3.76,5.81,0,10.39,1.08,13.72,3.24,3.33,2.16,5,5,5,8.52,0,2.29-.69,4.12-2.08,5.48-1.39,1.36-3.36,2.04-5.92,2.04-1.6,0-3.07-.27-4.4-.8-1.33-.53-2.72-1.05-4.16-1.56-1.44-.51-3.12-.76-5.04-.76-2.24,0-4.29.39-6.16,1.16-1.87.77-3.36,2.09-4.48,3.96-1.12,1.87-1.68,4.4-1.68,7.6,0,4.69,1.11,8.01,3.32,9.96,2.21,1.95,5.16,2.92,8.84,2.92,1.44,0,2.99-.12,4.64-.36,1.65-.24,3.24-.48,4.76-.72,1.52-.24,2.79-.36,3.8-.36,2.19,0,3.95.57,5.28,1.72,1.33,1.15,2,2.87,2,5.16,0,3.15-1.56,5.68-4.68,7.6s-7.77,2.88-13.96,2.88Z"/>
  <path class="cls-2" d="m74.12,31.72c-3.15,0-5.36-.69-6.64-2.08-1.28-1.39-1.92-3.36-1.92-5.92,0-1.39.25-2.76.76-4.12.51-1.36,1.39-2.49,2.64-3.4,1.25-.91,2.95-1.36,5.08-1.36,2.51,0,4.52.8,6.04,2.4,1.52,1.6,2.28,4.05,2.28,7.36,0,1.87-.35,3.91-1.04,6.12-.69,2.21-1.68,4.23-2.96,6.04-1.07,1.49-2.09,2.61-3.08,3.36-.99.75-1.96,1.12-2.92,1.12-.75,0-1.35-.2-1.8-.6-.45-.4-.68-1-.68-1.8,0-.75.25-1.76.76-3.04.51-1.28,1.59-3.04,3.24-5.28l.24,1.2Z"/>
  <path class="cls-3" d="m109.08,15.48c3.89,0,7.17.19,9.84.56,2.67.37,4.83.88,6.48,1.52,2.13.85,3.59,1.92,4.36,3.2.77,1.28,1.16,2.75,1.16,4.4,0,2.29-.72,4.15-2.16,5.56-1.44,1.41-3.65,2.12-6.64,2.12-1.65,0-3.43-.16-5.32-.48-1.89-.32-3.83-.8-5.8-1.44l.64-1.6c.69,2.45,1.32,5.17,1.88,8.16.56,2.99,1.04,6.01,1.44,9.08.4,3.07.69,5.96.88,8.68.19,2.72.28,5.01.28,6.88,0,4.16-.67,7.32-2,9.48-1.33,2.16-3.6,3.24-6.8,3.24-2.88,0-5-.97-6.36-2.92-1.36-1.95-2.04-4.89-2.04-8.84,0-2.29.15-4.91.44-7.84.29-2.93.72-5.97,1.28-9.12.56-3.15,1.19-6.16,1.88-9.04.69-2.88,1.41-5.39,2.16-7.52l.96,1.36c-1.07.37-2.32.73-3.76,1.08-1.44.35-2.88.63-4.32.84-1.44.21-2.72.32-3.84.32-3.09,0-5.28-.59-6.56-1.76-1.28-1.17-1.92-2.8-1.92-4.88,0-1.81.49-3.41,1.48-4.8.99-1.39,2.49-2.56,4.52-3.52,2.03-.91,4.49-1.59,7.4-2.04,2.91-.45,6.39-.68,10.44-.68Z"/>
  <path class="cls-3" d="m135.72,39.4c0-5.55.59-9.55,1.76-12,1.17-2.45,2.85-3.68,5.04-3.68,1.6,0,2.85.57,3.76,1.72.91,1.15,1.57,2.56,2,4.24.43,1.68.64,3.37.64,5.08l-.4-.16c.91-2.88,2.29-5.36,4.16-7.44,1.87-2.08,4.13-3.12,6.8-3.12,3.25,0,5.67,1.32,7.24,3.96s2.36,5.93,2.36,9.88c0,5.23-.69,8.88-2.08,10.96-1.39,2.08-3.23,3.12-5.52,3.12-1.71,0-2.96-.59-3.76-1.76-.8-1.17-1.09-3.15-.88-5.92.16-2.61.01-4.43-.44-5.44-.45-1.01-1.16-1.52-2.12-1.52-1.23,0-2.2.73-2.92,2.2-.72,1.47-1.08,3.35-1.08,5.64,0,1.07.13,2.44.4,4.12.27,1.68.56,3.49.88,5.44.32,1.95.61,3.88.88,5.8.27,1.92.4,3.71.4,5.36,0,3.04-.59,5.23-1.76,6.56-1.17,1.33-2.83,2-4.96,2-2.24,0-4-.64-5.28-1.92-1.28-1.28-2.21-3.36-2.8-6.24-.37-2.24-.75-4.95-1.12-8.12-.37-3.17-.67-6.43-.88-9.76-.21-3.33-.32-6.33-.32-9Z"/>
  <path class="cls-3" d="m195.08,74.52c-4.48,0-8.39-.95-11.72-2.84-3.33-1.89-5.91-4.6-7.72-8.12-1.81-3.52-2.72-7.71-2.72-12.56s.92-9.49,2.76-13.28c1.84-3.79,4.45-6.75,7.84-8.88,3.39-2.13,7.32-3.2,11.8-3.2,4.8,0,8.96,1.03,12.48,3.08,3.52,2.05,6.25,4.92,8.2,8.6,1.95,3.68,2.92,7.97,2.92,12.88s-.99,9.33-2.96,12.96c-1.97,3.63-4.73,6.43-8.28,8.4-3.55,1.97-7.75,2.96-12.6,2.96Zm1.12-13.04c2.83,0,5.07-1.12,6.72-3.36,1.65-2.24,2.48-5.2,2.48-8.88s-.83-6.71-2.48-8.92c-1.65-2.21-3.89-3.32-6.72-3.32s-5.24,1.11-6.92,3.32c-1.68,2.21-2.52,5.19-2.52,8.92s.84,6.64,2.52,8.88c1.68,2.24,3.99,3.36,6.92,3.36Z"/>
  <path class="cls-3" d="m245.56,75.16c-7.52,0-13.04-1.92-16.56-5.76-3.52-3.84-5.28-9.17-5.28-16,0-5.28,1.05-9.96,3.16-14.04,2.11-4.08,5.13-7.28,9.08-9.6,3.95-2.32,8.67-3.48,14.16-3.48,5.01,0,8.84.88,11.48,2.64,2.64,1.76,3.96,4.11,3.96,7.04,0,1.92-.63,3.43-1.88,4.52-1.25,1.09-3.05,1.64-5.4,1.64-1.07,0-2.13-.11-3.2-.32-1.07-.21-2.16-.43-3.28-.64-1.12-.21-2.37-.32-3.76-.32-3.47,0-6.07.88-7.8,2.64-1.73,1.76-2.6,4.29-2.6,7.6s.85,5.44,2.56,6.88c1.71,1.44,4.03,2.16,6.96,2.16,1.39,0,2.71-.16,3.96-.48,1.25-.32,2.47-.63,3.64-.92,1.17-.29,2.35-.44,3.52-.44,1.76,0,3.2.51,4.32,1.52,1.12,1.01,1.68,2.45,1.68,4.32,0,2.08-.69,3.95-2.08,5.6-1.39,1.65-3.47,2.97-6.24,3.96-2.77.99-6.24,1.48-10.4,1.48Z"/>
</svg>