<?xml version="1.0" encoding="UTF-8"?>
<svg id="Layer_1" data-name="Layer 1" xmlns="http://www.w3.org/2000/svg" viewBox="0 0 6.73 11">
  <defs>
    <style>
      .cls-1 {
        fill: #fabb17;
      }
    </style>
  </defs>
  <path class="cls-1" d="m0,4.09C0,1.99,1.2.5,2.97.5c1.29,0,1.94.92,2.12,1.27h.07V.67h.96v5.58c0,.21.12.31.31.31h.29v.92h-.61c-.52,0-.9-.42-.91-1.01v-.07h-.07c-.16.28-.73,1.24-2.09,1.24-1.79,0-3.05-1.48-3.05-3.56Zm5.21.01c0-1.69-.96-2.66-2.12-2.66C1.86,1.44.97,2.54.97,4.1s.92,2.62,2.12,2.62c1.31,0,2.11-1.19,2.11-2.62Z"/>
</svg>