<?xml version="1.0" encoding="UTF-8"?>
<svg id="Layer_2" data-name="Layer 2" xmlns="http://www.w3.org/2000/svg" viewBox="0 0 50 50">
  <defs>
    <style>
      .cls-1 {
        fill: #fabb17;
      }
    </style>
  </defs>
  <path class="cls-1" d="m25.74,44.55c-6.02,0-10.43-1.54-13.25-4.61-2.82-3.07-4.22-7.34-4.22-12.8,0-4.22.84-7.97,2.53-11.23,1.69-3.26,4.11-5.82,7.26-7.68,3.16-1.86,6.93-2.78,11.33-2.78,4.01,0,7.07.7,9.18,2.11,2.11,1.41,3.17,3.29,3.17,5.63,0,1.54-.5,2.74-1.5,3.62-1,.87-2.44,1.31-4.32,1.31-.85,0-1.71-.09-2.56-.26-.85-.17-1.73-.34-2.62-.51-.9-.17-1.9-.26-3.01-.26-2.77,0-4.85.7-6.24,2.11-1.39,1.41-2.08,3.44-2.08,6.08s.68,4.35,2.05,5.5c1.37,1.15,3.22,1.73,5.57,1.73,1.11,0,2.16-.13,3.17-.38,1-.25,1.97-.5,2.91-.73.94-.23,1.88-.35,2.82-.35,1.41,0,2.56.41,3.46,1.22.9.81,1.34,1.96,1.34,3.46,0,1.66-.56,3.16-1.66,4.48-1.11,1.32-2.77,2.38-4.99,3.17s-4.99,1.19-8.32,1.19Z"/>
</svg>