<?xml version="1.0" encoding="UTF-8"?>
<svg id="Layer_1" data-name="Layer 1" xmlns="http://www.w3.org/2000/svg" viewBox="0 0 22.14 11">
  <defs>
    <style>
      .cls-1 {
        fill: #1883bf;
      }
    </style>
  </defs>
  <path class="cls-1" d="m13.15,2.06h-.07c-.16-.23-.74-1.14-2.1-1.14-1.78,0-3.05,1.36-3.05,3.26s1.21,3.29,2.97,3.29c1.31,0,1.93-.78,2.13-1.16h.07v1.9c0,.67-.28,1-.94,1h-6.92v-3.05c0-1.38-.88-2.47-2.33-2.47-.97,0-1.64.5-1.91,1.07h-.07v-.91h-.95v6.24h.95v-3.72c0-1.03.77-1.79,1.75-1.79.88,0,1.61.65,1.61,1.64v3.86h7.86c1.14,0,1.9-.52,1.9-1.77V1.08h-.91v.98Zm-2.13,4.55c-1.22,0-2.11-1-2.11-2.42s.94-2.4,2.13-2.4c1.29,0,2.11,1.09,2.11,2.4,0,1.54-.96,2.42-2.13,2.42Z"/>
  <path class="cls-1" d="m18.89.92c-1.86,0-3.26,1.39-3.26,3.27s1.38,3.27,3.25,3.27,3.26-1.4,3.26-3.27-1.37-3.27-3.25-3.27Zm-.01,5.69c-1.33,0-2.28-1.01-2.28-2.41s.94-2.41,2.28-2.41,2.29,1.03,2.29,2.41-.95,2.41-2.29,2.41Z"/>
</svg>