<?xml version="1.0" encoding="UTF-8"?>
<svg id="Layer_1" data-name="Layer 1" xmlns="http://www.w3.org/2000/svg" viewBox="0 0 100 20">
  <defs>
    <style>
      .cls-1 {
        fill: #fff;
      }

      .cls-2 {
        fill: #34592a;
      }
    </style>
  </defs>
  <rect class="cls-2" width="100" height="20"/>
  <path class="cls-1" d="m4.46,12.97c.73,1.2,2.09,1.99,3.58,1.99,1.8,0,3.03-1.04,3.03-2.39,0-1.57-1.33-2.04-3.08-2.8-1.43-.63-2.44-1.12-2.44-2.26,0-1.29,1.1-2.14,2.57-2.14,1.22,0,2.22.64,2.8,1.65l-.91.69c-.46-.76-1.1-1.22-1.91-1.22-.64,0-1.27.33-1.27.99s.96.89,2.08,1.37c1.93.82,3.44,1.58,3.44,3.67,0,1.91-1.63,3.58-4.32,3.58-1.78,0-3.56-.84-4.43-2.41l.86-.73Zm5.01-.36c0-.77-.89-.91-2.54-1.63-1.66-.73-2.98-1.53-2.98-3.43,0-2.16,1.81-3.64,4.18-3.64,1.78,0,3.2.84,3.97,2.19l-.92.71c-.64-1.09-1.71-1.76-3.06-1.76-1.57,0-2.9.96-2.9,2.47,0,1.4,1.27,1.96,2.64,2.55,1.81.79,2.88,1.2,2.88,2.5,0,1.12-1.01,2.06-2.7,2.06-1.37,0-2.65-.77-3.31-1.9l.87-.72c.49.77,1.37,1.48,2.44,1.48.81,0,1.43-.31,1.43-.89Z"/>
  <path class="cls-1" d="m13.92,4.1l2.93,10.81h1.24l2.8-9.52h.1l2.82,9.52h1.24l2.97-10.81h1.27l-3.43,11.78h-2.85l-2.04-7.55-2.04,7.55h-2.85l-3.43-11.78h1.29Zm.35,0h1.29l2.04,7.94,2.11-7.94h2.5l2.11,7.94,2.04-7.94h1.3l-2.88,10.48h-.74l-2.82-9.52h-.56l-2.8,9.52h-.74l-2.85-10.48Z"/>
  <path class="cls-1" d="m33.4,4.1h2.78l4.5,11.78h-1.3l-4.12-10.84h-.94l-4.12,10.84h-1.3l4.5-11.78Zm-2.85,11.78l1.37-3.58h5.75l1.37,3.58h-1.29l-.94-2.49h-4.04l-.94,2.49h-1.29Zm4-10.51h.48l2.52,6.61h-5.52l2.52-6.61Zm-.94,5.62h2.34l-1.17-3.61-1.17,3.61Z"/>
  <path class="cls-1" d="m43.32,15.88v-4.7h2.78c1.7,0,3.02-1.29,3.02-3.03s-1.3-2.98-3.03-2.98h-3.1v10.71h-1.27V4.1h4.56c2.37,0,4.17,1.73,4.17,4.05s-1.85,4.1-4.15,4.1h-1.7v3.63h-1.29Zm0-10.38h2.77c1.53,0,2.7,1.12,2.7,2.65s-1.19,2.7-2.69,2.7h-2.78v-5.35Zm1.29,4.27h1.3c.89,0,1.57-.71,1.57-1.63s-.68-1.57-1.57-1.57h-1.3v3.2Z"/>
  <path class="cls-1" d="m58.19,4.1l4.98,6.87v-6.87h1.28v10.46h-.07l-6.77-9.52h-.58v10.84h-1.27V4.1h2.42Zm-.82,1.27h.08l6.77,9.52h.56V4.1h1.27v11.78h-2.41l-4.99-6.94v6.94h-1.29V5.37Z"/>
  <path class="cls-1" d="m71.64,9.98c0-3.38,2.54-6.08,6.29-6.08,2.36,0,4,1.09,4.98,2.6l-.96.77c-.79-1.22-2.16-2.17-4.05-2.17-2.95,0-4.94,2.14-4.94,4.88s1.98,4.91,4.83,4.91c1.91,0,3.23-.86,4.07-2.12v-2.57h-3.84v-1.04h5.04v4.09c-.97,1.57-2.73,2.83-5.24,2.83-3.66,0-6.18-2.72-6.18-6.1Zm6.26-4.55c1.78,0,3.06.91,3.82,2.04l-.94.77c-.59-.86-1.58-1.63-2.9-1.63-1.98,0-3.26,1.47-3.26,3.36s1.27,3.38,3.15,3.38c1.2,0,1.94-.4,2.57-1.19v-.61h-2.32v-1.04h3.51v2.14c-.56.84-1.68,1.89-3.74,1.89-2.69,0-4.5-2.04-4.5-4.58s1.83-4.55,4.61-4.55Z"/>
  <path class="cls-1" d="m90.23,16.08c-3.62,0-6.16-2.72-6.16-6.1s2.54-6.08,6.16-6.08,6.16,2.7,6.16,6.08-2.54,6.1-6.16,6.1Zm0-1.19c2.85,0,4.83-2.19,4.83-4.91s-1.98-4.88-4.83-4.88-4.84,2.16-4.84,4.88,1.98,4.91,4.84,4.91v-.33c-2.67,0-4.51-2.03-4.51-4.58s1.85-4.55,4.51-4.55,4.5,1.99,4.5,4.55-1.85,4.58-4.5,4.58v.33Zm0-8.27c-1.89,0-3.18,1.47-3.18,3.36s1.29,3.38,3.18,3.38,3.18-1.48,3.18-3.38-1.29-3.36-3.18-3.36Z"/>
</svg>