<?xml version="1.0" encoding="UTF-8"?>
<svg id="Layer_1" data-name="Layer 1" xmlns="http://www.w3.org/2000/svg" viewBox="0 0 60 15">
  <defs>
    <style>
      .cls-1 {
        fill: #c5c5c5;
      }

      .cls-2 {
        fill: #fabb17;
      }
    </style>
  </defs>
  <path class="cls-1" d="m1.49,8.89l.86-.22c.07.84.66,1.27,1.61,1.27s1.45-.46,1.45-1.09c0-1.75-3.73-.42-3.73-2.89,0-1.06.95-1.74,2.25-1.74,1.08,0,2.12.62,2.27,1.75l-.83.24c-.08-.73-.68-1.18-1.5-1.18s-1.28.38-1.28.92c0,1.58,3.74.26,3.74,2.84,0,1.18-.97,1.97-2.42,1.97s-2.28-.77-2.42-1.88Z"/>
  <path class="cls-1" d="m7.48,4.38h1.03l1.52,5.35h.07l1.52-5.35h1.32l1.51,5.35h.07l1.54-5.35h1.03l-1.96,6.24h-1.32l-1.5-5.35h-.07l-1.51,5.35h-1.32l-1.94-6.24Z"/>
  <path class="cls-1" d="m17.94,7.51c0-1.92,1.2-3.29,2.97-3.29,1.29,0,1.94.84,2.12,1.16h.07v-1.01h.96v5.11c0,.19.12.29.31.29h.29v.84h-.61c-.52,0-.9-.38-.91-.92v-.06h-.07c-.16.25-.73,1.14-2.09,1.14-1.79,0-3.05-1.35-3.05-3.26Zm5.21.01c0-1.55-.96-2.43-2.12-2.43-1.22,0-2.11,1.01-2.11,2.43s.92,2.4,2.12,2.4c1.31,0,2.11-1.09,2.11-2.4Z"/>
  <path class="cls-1" d="m26.47,4.38h.91v.98h.07c.16-.23.74-1.14,2.1-1.14,1.77,0,3.05,1.36,3.05,3.26s-1.21,3.29-2.97,3.29c-1.31,0-1.93-.78-2.13-1.16h-.07v3.77h-.95V4.38Zm5.16,3.11c0-1.46-.94-2.4-2.13-2.4-1.29,0-2.11,1.09-2.11,2.4,0,1.54.96,2.42,2.13,2.42s2.11-1,2.11-2.42Z"/>
  <g>
    <path class="cls-2" d="m49.52,2.76h-.07c-.16-.23-.74-1.14-2.1-1.14-1.78,0-3.05,1.36-3.05,3.26s1.21,3.29,2.97,3.29c1.31,0,1.93-.78,2.13-1.16h.07v1.9c0,.67-.28,1-.94,1h-6.92v-3.05c0-1.38-.88-2.47-2.33-2.47-.97,0-1.64.5-1.91,1.07h-.07v-.91h-.95v6.24h.95v-3.72c0-1.03.77-1.79,1.75-1.79.88,0,1.61.65,1.61,1.64v3.86h7.86c1.14,0,1.9-.52,1.9-1.77V1.78h-.91v.98Zm-2.13,4.55c-1.22,0-2.11-1-2.11-2.42s.94-2.4,2.13-2.4c1.29,0,2.11,1.09,2.11,2.4,0,1.54-.96,2.42-2.13,2.42Z"/>
    <path class="cls-2" d="m55.26,1.62c-1.86,0-3.26,1.39-3.26,3.27s1.38,3.27,3.25,3.27,3.26-1.4,3.26-3.27-1.37-3.27-3.25-3.27Zm-.01,5.69c-1.33,0-2.28-1.01-2.28-2.41s.94-2.41,2.28-2.41,2.29,1.03,2.29,2.41-.95,2.41-2.29,2.41Z"/>
  </g>
</svg>